<svg xmlns="http://www.w3.org/2000/svg" version="1.1" viewBox="0.00 0.00 998.00 722.00" width="998.00" height="722.00">
<g stroke-width="2.00" fill="none" stroke-linecap="butt">
<path stroke="#808080" d="&#10;  M 608.31 115.52&#10;  L 615.75 115.52&#10;  A 0.40 0.40 0.0 0 1 616.16 115.93&#10;  Q 616.05 121.17 616.09 126.58&#10;  A 0.18 0.18 0.0 0 0 616.31 126.75&#10;  L 625.13 124.44&#10;  Q 625.39 124.37 625.41 124.10&#10;  Q 625.75 118.24 625.06 113.83&#10;  Q 624.17 108.20 618.30 107.85&#10;  Q 614.00 107.60 608.19 107.68&#10;  C 602.54 107.76 599.06 111.19 599.13 116.93&#10;  Q 599.19 122.87 599.16 127.93&#10;  C 599.13 131.48 601.04 134.69 603.89 136.63&#10;  Q 608.54 139.79 612.84 142.63&#10;  Q 616.16 144.82 616.22 148.70&#10;  Q 616.28 152.71 616.33 157.13&#10;  A 0.38 0.38 0.0 0 1 615.96 157.51&#10;  L 608.54 157.53&#10;  Q 608.18 157.53 608.18 157.18&#10;  L 608.27 146.70&#10;  A 0.42 0.42 0.0 0 0 607.85 146.28&#10;  L 599.07 146.30&#10;  A 0.38 0.37 89.2 0 0 598.70 146.69&#10;  Q 598.84 150.94 598.70 155.58&#10;  C 598.37 167.06 606.45 165.46 614.62 165.60&#10;  C 620.75 165.71 625.61 164.04 625.46 157.05&#10;  Q 625.37 152.79 625.52 148.46&#10;  C 625.72 142.87 624.57 138.78 619.81 135.72&#10;  Q 614.95 132.60 610.60 129.56&#10;  Q 608.56 128.13 608.34 125.86&#10;  Q 607.92 121.57 608.07 115.75&#10;  Q 608.08 115.52 608.31 115.52"/>
<path stroke="#808080" d="&#10;  M 381.95 117.32&#10;  Q 381.89 133.19 381.88 148.25&#10;  C 381.87 154.74 377.73 156.36 371.85 156.39&#10;  Q 371.24 156.39 371.24 157.00&#10;  L 371.23 164.55&#10;  Q 371.23 165.27 371.95 165.26&#10;  Q 378.18 165.20 381.58 163.80&#10;  Q 391.39 159.78 391.44 149.23&#10;  Q 391.52 129.90 391.48 108.90&#10;  Q 391.48 108.19 390.78 108.19&#10;  L 373.28 108.21&#10;  Q 373.02 108.21 373.02 108.47&#10;  L 373.01 116.28&#10;  Q 373.01 116.54 373.27 116.54&#10;  L 381.28 116.64&#10;  Q 381.95 116.65 381.95 117.32"/>
<path stroke="#808080" d="&#10;  M 409.00 157.27&#10;  Q 408.73 157.27 408.73 157.00&#10;  L 408.73 108.61&#10;  Q 408.73 108.19 408.31 108.19&#10;  L 399.66 108.17&#10;  A 0.42 0.41 0.0 0 0 399.24 108.58&#10;  Q 399.29 132.03 399.22 156.74&#10;  C 399.20 161.25 401.72 165.09 406.48 165.37&#10;  Q 411.94 165.69 418.98 165.50&#10;  C 425.26 165.33 427.16 160.77 427.17 155.26&#10;  Q 427.23 132.10 427.17 108.49&#10;  Q 427.17 108.23 426.92 108.23&#10;  L 417.79 108.16&#10;  Q 417.49 108.16 417.49 108.46&#10;  L 417.50 157.04&#10;  A 0.29 0.29 0.0 0 1 417.21 157.33&#10;  L 409.00 157.27"/>
<path stroke="#808080" d="&#10;  M 444.03 155.29&#10;  L 444.03 108.49&#10;  Q 444.03 108.20 443.74 108.20&#10;  L 434.84 108.16&#10;  A 0.37 0.37 0.0 0 0 434.46 108.53&#10;  L 434.45 164.52&#10;  Q 434.45 165.15 435.08 165.18&#10;  C 450.68 166.11 462.39 160.19 462.43 143.11&#10;  Q 462.47 126.09 462.42 108.72&#10;  A 0.58 0.58 0.0 0 0 461.84 108.14&#10;  L 453.22 108.18&#10;  Q 452.73 108.18 452.74 108.67&#10;  Q 452.80 124.43 452.72 142.69&#10;  C 452.70 148.07 451.22 155.00 444.79 155.95&#10;  Q 444.03 156.06 444.03 155.29"/>
<path stroke="#808080" d="&#10;  M 490.49 132.33&#10;  A 0.43 0.43 0.0 0 0 490.06 131.82&#10;  L 479.98 131.94&#10;  A 0.43 0.43 0.0 0 1 479.55 131.52&#10;  L 479.50 117.35&#10;  A 0.43 0.43 0.0 0 1 479.93 116.92&#10;  L 492.28 116.98&#10;  A 0.43 0.43 0.0 0 0 492.71 116.47&#10;  L 491.24 108.52&#10;  A 0.43 0.43 0.0 0 0 490.82 108.17&#10;  L 470.39 108.18&#10;  A 0.43 0.43 0.0 0 0 469.96 108.61&#10;  L 469.97 164.83&#10;  A 0.43 0.43 0.0 0 0 470.40 165.26&#10;  L 491.48 165.23&#10;  A 0.43 0.43 0.0 0 0 491.90 164.88&#10;  L 493.33 156.96&#10;  A 0.43 0.43 0.0 0 0 492.90 156.45&#10;  L 479.97 156.52&#10;  A 0.43 0.43 0.0 0 1 479.54 156.09&#10;  L 479.51 140.71&#10;  A 0.43 0.43 0.0 0 1 479.94 140.28&#10;  L 488.58 140.30&#10;  A 0.43 0.43 0.0 0 0 489.00 139.95&#10;  L 490.49 132.33"/>
<path stroke="#808080" d="&#10;  M 507.67 165.24&#10;  A 0.38 0.38 0.0 0 0 508.05 164.86&#10;  L 507.95 126.81&#10;  A 0.38 0.38 0.0 0 1 508.68 126.65&#10;  L 517.40 145.72&#10;  A 0.38 0.38 0.0 0 1 517.43 145.87&#10;  L 517.47 164.86&#10;  A 0.38 0.38 0.0 0 0 517.85 165.24&#10;  L 526.15 165.25&#10;  A 0.38 0.38 0.0 0 0 526.53 164.87&#10;  L 526.53 108.53&#10;  A 0.38 0.38 0.0 0 0 526.15 108.15&#10;  L 517.83 108.18&#10;  A 0.38 0.38 0.0 0 0 517.45 108.56&#10;  L 517.49 128.70&#10;  A 0.38 0.38 0.0 0 1 516.76 128.85&#10;  L 508.06 108.44&#10;  A 0.38 0.38 0.0 0 0 507.71 108.21&#10;  L 499.35 108.18&#10;  A 0.38 0.38 0.0 0 0 498.97 108.56&#10;  L 498.96 164.86&#10;  A 0.38 0.38 0.0 0 0 499.34 165.24&#10;  L 507.67 165.24"/>
<path stroke="#808080" d="&#10;  M 549.96 117.56&#10;  A 0.43 0.43 0.0 0 1 550.39 117.13&#10;  L 558.68 117.18&#10;  A 0.43 0.43 0.0 0 0 559.11 116.67&#10;  L 557.60 108.54&#10;  A 0.43 0.43 0.0 0 0 557.17 108.19&#10;  L 533.16 108.21&#10;  A 0.43 0.43 0.0 0 0 532.74 108.56&#10;  L 531.29 116.73&#10;  A 0.43 0.43 0.0 0 0 531.72 117.24&#10;  L 540.04 117.16&#10;  A 0.43 0.43 0.0 0 1 540.47 117.59&#10;  L 540.47 164.81&#10;  A 0.43 0.43 0.0 0 0 540.90 165.24&#10;  L 549.55 165.25&#10;  A 0.43 0.43 0.0 0 0 549.98 164.82&#10;  L 549.96 117.56"/>
<path stroke="#808080" d="&#10;  M 581.73 157.27&#10;  L 574.01 157.30&#10;  Q 573.47 157.30 573.47 156.76&#10;  L 573.47 108.48&#10;  A 0.33 0.33 0.0 0 0 573.14 108.15&#10;  L 564.22 108.18&#10;  Q 563.93 108.18 563.93 108.47&#10;  Q 564.01 130.90 563.92 155.96&#10;  C 563.90 161.28 566.10 165.32 572.04 165.44&#10;  Q 576.28 165.53 582.34 165.57&#10;  C 587.48 165.61 591.65 163.01 591.68 157.66&#10;  Q 591.77 135.83 591.72 108.61&#10;  A 0.42 0.42 0.0 0 0 591.30 108.19&#10;  L 582.58 108.15&#10;  A 0.36 0.36 0.0 0 0 582.22 108.51&#10;  L 582.23 156.77&#10;  Q 582.23 157.26 581.73 157.27"/>
<path stroke="#808080" d="&#10;  M 472.89 255.08&#10;  Q 472.92 332.89 472.88 411.23&#10;  C 472.87 423.13 472.32 435.77 468.97 447.43&#10;  C 465.62 459.07 458.39 467.72 448.85 474.80&#10;  Q 440.49 481.01 432.10 485.55&#10;  Q 411.30 496.79 384.14 508.71&#10;  A 0.67 0.67 0.0 0 0 383.78 509.58&#10;  Q 392.74 532.23 409.25 552.03&#10;  Q 409.50 552.32 409.85 552.17&#10;  Q 426.47 544.88 442.88 536.74&#10;  Q 465.12 525.70 481.78 513.79&#10;  C 503.60 498.18 517.61 478.72 522.08 452.14&#10;  Q 524.52 437.65 524.53 429.05&#10;  Q 524.71 320.37 524.59 210.06&#10;  A 0.30 0.29 0.0 0 0 524.29 209.77&#10;  L 371.52 209.76&#10;  A 0.22 0.22 0.0 0 0 371.30 209.98&#10;  L 371.30 254.14&#10;  A 0.59 0.58 -0.0 0 0 371.89 254.72&#10;  L 472.53 254.72&#10;  A 0.36 0.36 0.0 0 1 472.89 255.08"/>
<path stroke="#808080" d="&#10;  M 563.59 490.67&#10;  C 555.52 512.29 541.27 529.90 522.25 544.30&#10;  C 500.58 560.70 474.29 574.04 448.98 586.15&#10;  A 0.49 0.45 -5.3 0 0 448.73 586.43&#10;  Q 448.59 586.86 448.84 587.02&#10;  Q 472.57 602.10 498.23 614.08&#10;  Q 498.63 614.26 499.03 614.08&#10;  Q 522.95 603.26 545.17 588.81&#10;  Q 564.65 576.14 578.63 562.25&#10;  Q 606.39 534.67 617.49 496.91&#10;  Q 625.67 469.07 625.71 444.20&#10;  Q 625.87 324.38 625.77 210.27&#10;  A 0.51 0.51 0.0 0 0 625.26 209.76&#10;  L 574.28 209.76&#10;  Q 573.72 209.76 573.72 210.32&#10;  Q 573.81 321.97 573.69 427.64&#10;  C 573.67 448.61 570.99 470.87 563.59 490.67"/>
</g>
<path fill="#ffffff" d="&#10;  M 0.00 0.00&#10;  L 998.00 0.00&#10;  L 998.00 722.00&#10;  L 0.00 722.00&#10;  L 0.00 0.00&#10;  Z&#10;  M 608.31 115.52&#10;  L 615.75 115.52&#10;  A 0.40 0.40 0.0 0 1 616.16 115.93&#10;  Q 616.05 121.17 616.09 126.58&#10;  A 0.18 0.18 0.0 0 0 616.31 126.75&#10;  L 625.13 124.44&#10;  Q 625.39 124.37 625.41 124.10&#10;  Q 625.75 118.24 625.06 113.83&#10;  Q 624.17 108.20 618.30 107.85&#10;  Q 614.00 107.60 608.19 107.68&#10;  C 602.54 107.76 599.06 111.19 599.13 116.93&#10;  Q 599.19 122.87 599.16 127.93&#10;  C 599.13 131.48 601.04 134.69 603.89 136.63&#10;  Q 608.54 139.79 612.84 142.63&#10;  Q 616.16 144.82 616.22 148.70&#10;  Q 616.28 152.71 616.33 157.13&#10;  A 0.38 0.38 0.0 0 1 615.96 157.51&#10;  L 608.54 157.53&#10;  Q 608.18 157.53 608.18 157.18&#10;  L 608.27 146.70&#10;  A 0.42 0.42 0.0 0 0 607.85 146.28&#10;  L 599.07 146.30&#10;  A 0.38 0.37 89.2 0 0 598.70 146.69&#10;  Q 598.84 150.94 598.70 155.58&#10;  C 598.37 167.06 606.45 165.46 614.62 165.60&#10;  C 620.75 165.71 625.61 164.04 625.46 157.05&#10;  Q 625.37 152.79 625.52 148.46&#10;  C 625.72 142.87 624.57 138.78 619.81 135.72&#10;  Q 614.95 132.60 610.60 129.56&#10;  Q 608.56 128.13 608.34 125.86&#10;  Q 607.92 121.57 608.07 115.75&#10;  Q 608.08 115.52 608.31 115.52&#10;  Z&#10;  M 381.95 117.32&#10;  Q 381.89 133.19 381.88 148.25&#10;  C 381.87 154.74 377.73 156.36 371.85 156.39&#10;  Q 371.24 156.39 371.24 157.00&#10;  L 371.23 164.55&#10;  Q 371.23 165.27 371.95 165.26&#10;  Q 378.18 165.20 381.58 163.80&#10;  Q 391.39 159.78 391.44 149.23&#10;  Q 391.52 129.90 391.48 108.90&#10;  Q 391.48 108.19 390.78 108.19&#10;  L 373.28 108.21&#10;  Q 373.02 108.21 373.02 108.47&#10;  L 373.01 116.28&#10;  Q 373.01 116.54 373.27 116.54&#10;  L 381.28 116.64&#10;  Q 381.95 116.65 381.95 117.32&#10;  Z&#10;  M 409.00 157.27&#10;  Q 408.73 157.27 408.73 157.00&#10;  L 408.73 108.61&#10;  Q 408.73 108.19 408.31 108.19&#10;  L 399.66 108.17&#10;  A 0.42 0.41 0.0 0 0 399.24 108.58&#10;  Q 399.29 132.03 399.22 156.74&#10;  C 399.20 161.25 401.72 165.09 406.48 165.37&#10;  Q 411.94 165.69 418.98 165.50&#10;  C 425.26 165.33 427.16 160.77 427.17 155.26&#10;  Q 427.23 132.10 427.17 108.49&#10;  Q 427.17 108.23 426.92 108.23&#10;  L 417.79 108.16&#10;  Q 417.49 108.16 417.49 108.46&#10;  L 417.50 157.04&#10;  A 0.29 0.29 0.0 0 1 417.21 157.33&#10;  L 409.00 157.27&#10;  Z&#10;  M 444.03 155.29&#10;  L 444.03 108.49&#10;  Q 444.03 108.20 443.74 108.20&#10;  L 434.84 108.16&#10;  A 0.37 0.37 0.0 0 0 434.46 108.53&#10;  L 434.45 164.52&#10;  Q 434.45 165.15 435.08 165.18&#10;  C 450.68 166.11 462.39 160.19 462.43 143.11&#10;  Q 462.47 126.09 462.42 108.72&#10;  A 0.58 0.58 0.0 0 0 461.84 108.14&#10;  L 453.22 108.18&#10;  Q 452.73 108.18 452.74 108.67&#10;  Q 452.80 124.43 452.72 142.69&#10;  C 452.70 148.07 451.22 155.00 444.79 155.95&#10;  Q 444.03 156.06 444.03 155.29&#10;  Z&#10;  M 490.49 132.33&#10;  A 0.43 0.43 0.0 0 0 490.06 131.82&#10;  L 479.98 131.94&#10;  A 0.43 0.43 0.0 0 1 479.55 131.52&#10;  L 479.50 117.35&#10;  A 0.43 0.43 0.0 0 1 479.93 116.92&#10;  L 492.28 116.98&#10;  A 0.43 0.43 0.0 0 0 492.71 116.47&#10;  L 491.24 108.52&#10;  A 0.43 0.43 0.0 0 0 490.82 108.17&#10;  L 470.39 108.18&#10;  A 0.43 0.43 0.0 0 0 469.96 108.61&#10;  L 469.97 164.83&#10;  A 0.43 0.43 0.0 0 0 470.40 165.26&#10;  L 491.48 165.23&#10;  A 0.43 0.43 0.0 0 0 491.90 164.88&#10;  L 493.33 156.96&#10;  A 0.43 0.43 0.0 0 0 492.90 156.45&#10;  L 479.97 156.52&#10;  A 0.43 0.43 0.0 0 1 479.54 156.09&#10;  L 479.51 140.71&#10;  A 0.43 0.43 0.0 0 1 479.94 140.28&#10;  L 488.58 140.30&#10;  A 0.43 0.43 0.0 0 0 489.00 139.95&#10;  L 490.49 132.33&#10;  Z&#10;  M 507.67 165.24&#10;  A 0.38 0.38 0.0 0 0 508.05 164.86&#10;  L 507.95 126.81&#10;  A 0.38 0.38 0.0 0 1 508.68 126.65&#10;  L 517.40 145.72&#10;  A 0.38 0.38 0.0 0 1 517.43 145.87&#10;  L 517.47 164.86&#10;  A 0.38 0.38 0.0 0 0 517.85 165.24&#10;  L 526.15 165.25&#10;  A 0.38 0.38 0.0 0 0 526.53 164.87&#10;  L 526.53 108.53&#10;  A 0.38 0.38 0.0 0 0 526.15 108.15&#10;  L 517.83 108.18&#10;  A 0.38 0.38 0.0 0 0 517.45 108.56&#10;  L 517.49 128.70&#10;  A 0.38 0.38 0.0 0 1 516.76 128.85&#10;  L 508.06 108.44&#10;  A 0.38 0.38 0.0 0 0 507.71 108.21&#10;  L 499.35 108.18&#10;  A 0.38 0.38 0.0 0 0 498.97 108.56&#10;  L 498.96 164.86&#10;  A 0.38 0.38 0.0 0 0 499.34 165.24&#10;  L 507.67 165.24&#10;  Z&#10;  M 549.96 117.56&#10;  A 0.43 0.43 0.0 0 1 550.39 117.13&#10;  L 558.68 117.18&#10;  A 0.43 0.43 0.0 0 0 559.11 116.67&#10;  L 557.60 108.54&#10;  A 0.43 0.43 0.0 0 0 557.17 108.19&#10;  L 533.16 108.21&#10;  A 0.43 0.43 0.0 0 0 532.74 108.56&#10;  L 531.29 116.73&#10;  A 0.43 0.43 0.0 0 0 531.72 117.24&#10;  L 540.04 117.16&#10;  A 0.43 0.43 0.0 0 1 540.47 117.59&#10;  L 540.47 164.81&#10;  A 0.43 0.43 0.0 0 0 540.90 165.24&#10;  L 549.55 165.25&#10;  A 0.43 0.43 0.0 0 0 549.98 164.82&#10;  L 549.96 117.56&#10;  Z&#10;  M 581.73 157.27&#10;  L 574.01 157.30&#10;  Q 573.47 157.30 573.47 156.76&#10;  L 573.47 108.48&#10;  A 0.33 0.33 0.0 0 0 573.14 108.15&#10;  L 564.22 108.18&#10;  Q 563.93 108.18 563.93 108.47&#10;  Q 564.01 130.90 563.92 155.96&#10;  C 563.90 161.28 566.10 165.32 572.04 165.44&#10;  Q 576.28 165.53 582.34 165.57&#10;  C 587.48 165.61 591.65 163.01 591.68 157.66&#10;  Q 591.77 135.83 591.72 108.61&#10;  A 0.42 0.42 0.0 0 0 591.30 108.19&#10;  L 582.58 108.15&#10;  A 0.36 0.36 0.0 0 0 582.22 108.51&#10;  L 582.23 156.77&#10;  Q 582.23 157.26 581.73 157.27&#10;  Z&#10;  M 472.89 255.08&#10;  Q 472.92 332.89 472.88 411.23&#10;  C 472.87 423.13 472.32 435.77 468.97 447.43&#10;  C 465.62 459.07 458.39 467.72 448.85 474.80&#10;  Q 440.49 481.01 432.10 485.55&#10;  Q 411.30 496.79 384.14 508.71&#10;  A 0.67 0.67 0.0 0 0 383.78 509.58&#10;  Q 392.74 532.23 409.25 552.03&#10;  Q 409.50 552.32 409.85 552.17&#10;  Q 426.47 544.88 442.88 536.74&#10;  Q 465.12 525.70 481.78 513.79&#10;  C 503.60 498.18 517.61 478.72 522.08 452.14&#10;  Q 524.52 437.65 524.53 429.05&#10;  Q 524.71 320.37 524.59 210.06&#10;  A 0.30 0.29 0.0 0 0 524.29 209.77&#10;  L 371.52 209.76&#10;  A 0.22 0.22 0.0 0 0 371.30 209.98&#10;  L 371.30 254.14&#10;  A 0.59 0.58 -0.0 0 0 371.89 254.72&#10;  L 472.53 254.72&#10;  A 0.36 0.36 0.0 0 1 472.89 255.08&#10;  Z&#10;  M 563.59 490.67&#10;  C 555.52 512.29 541.27 529.90 522.25 544.30&#10;  C 500.58 560.70 474.29 574.04 448.98 586.15&#10;  A 0.49 0.45 -5.3 0 0 448.73 586.43&#10;  Q 448.59 586.86 448.84 587.02&#10;  Q 472.57 602.10 498.23 614.08&#10;  Q 498.63 614.26 499.03 614.08&#10;  Q 522.95 603.26 545.17 588.81&#10;  Q 564.65 576.14 578.63 562.25&#10;  Q 606.39 534.67 617.49 496.91&#10;  Q 625.67 469.07 625.71 444.20&#10;  Q 625.87 324.38 625.77 210.27&#10;  A 0.51 0.51 0.0 0 0 625.26 209.76&#10;  L 574.28 209.76&#10;  Q 573.72 209.76 573.72 210.32&#10;  Q 573.81 321.97 573.69 427.64&#10;  C 573.67 448.61 570.99 470.87 563.59 490.67&#10;  Z"/>
<path fill="#000000" d="&#10;  M 608.07 115.75&#10;  Q 607.92 121.57 608.34 125.86&#10;  Q 608.56 128.13 610.60 129.56&#10;  Q 614.95 132.60 619.81 135.72&#10;  C 624.57 138.78 625.72 142.87 625.52 148.46&#10;  Q 625.37 152.79 625.46 157.05&#10;  C 625.61 164.04 620.75 165.71 614.62 165.60&#10;  C 606.45 165.46 598.37 167.06 598.70 155.58&#10;  Q 598.84 150.94 598.70 146.69&#10;  A 0.38 0.37 89.2 0 1 599.07 146.30&#10;  L 607.85 146.28&#10;  A 0.42 0.42 0.0 0 1 608.27 146.70&#10;  L 608.18 157.18&#10;  Q 608.18 157.53 608.54 157.53&#10;  L 615.96 157.51&#10;  A 0.38 0.38 0.0 0 0 616.33 157.13&#10;  Q 616.28 152.71 616.22 148.70&#10;  Q 616.16 144.82 612.84 142.63&#10;  Q 608.54 139.79 603.89 136.63&#10;  C 601.04 134.69 599.13 131.48 599.16 127.93&#10;  Q 599.19 122.87 599.13 116.93&#10;  C 599.06 111.19 602.54 107.76 608.19 107.68&#10;  Q 614.00 107.60 618.30 107.85&#10;  Q 624.17 108.20 625.06 113.83&#10;  Q 625.75 118.24 625.41 124.10&#10;  Q 625.39 124.37 625.13 124.44&#10;  L 616.31 126.75&#10;  A 0.18 0.18 0.0 0 1 616.09 126.58&#10;  Q 616.05 121.17 616.16 115.93&#10;  A 0.40 0.40 0.0 0 0 615.75 115.52&#10;  L 608.31 115.52&#10;  Q 608.08 115.52 608.07 115.75&#10;  Z"/>
<path fill="#000000" d="&#10;  M 381.28 116.64&#10;  L 373.27 116.54&#10;  Q 373.01 116.54 373.01 116.28&#10;  L 373.02 108.47&#10;  Q 373.02 108.21 373.28 108.21&#10;  L 390.78 108.19&#10;  Q 391.48 108.19 391.48 108.90&#10;  Q 391.52 129.90 391.44 149.23&#10;  Q 391.39 159.78 381.58 163.80&#10;  Q 378.18 165.20 371.95 165.26&#10;  Q 371.23 165.27 371.23 164.55&#10;  L 371.24 157.00&#10;  Q 371.24 156.39 371.85 156.39&#10;  C 377.73 156.36 381.87 154.74 381.88 148.25&#10;  Q 381.89 133.19 381.95 117.32&#10;  Q 381.95 116.65 381.28 116.64&#10;  Z"/>
<path fill="#000000" d="&#10;  M 417.50 157.04&#10;  L 417.49 108.46&#10;  Q 417.49 108.16 417.79 108.16&#10;  L 426.92 108.23&#10;  Q 427.17 108.23 427.17 108.49&#10;  Q 427.23 132.10 427.17 155.26&#10;  C 427.16 160.77 425.26 165.33 418.98 165.50&#10;  Q 411.94 165.69 406.48 165.37&#10;  C 401.72 165.09 399.20 161.25 399.22 156.74&#10;  Q 399.29 132.03 399.24 108.58&#10;  A 0.42 0.41 0.0 0 1 399.66 108.17&#10;  L 408.31 108.19&#10;  Q 408.73 108.19 408.73 108.61&#10;  L 408.73 157.00&#10;  Q 408.73 157.27 409.00 157.27&#10;  L 417.21 157.33&#10;  A 0.29 0.29 0.0 0 0 417.50 157.04&#10;  Z"/>
<path fill="#000000" d="&#10;  M 444.79 155.95&#10;  C 451.22 155.00 452.70 148.07 452.72 142.69&#10;  Q 452.80 124.43 452.74 108.67&#10;  Q 452.73 108.18 453.22 108.18&#10;  L 461.84 108.14&#10;  A 0.58 0.58 0.0 0 1 462.42 108.72&#10;  Q 462.47 126.09 462.43 143.11&#10;  C 462.39 160.19 450.68 166.11 435.08 165.18&#10;  Q 434.45 165.15 434.45 164.52&#10;  L 434.46 108.53&#10;  A 0.37 0.37 0.0 0 1 434.84 108.16&#10;  L 443.74 108.20&#10;  Q 444.03 108.20 444.03 108.49&#10;  L 444.03 155.29&#10;  Q 444.03 156.06 444.79 155.95&#10;  Z"/>
<path fill="#000000" d="&#10;  M 490.49 132.33&#10;  L 489.00 139.95&#10;  A 0.43 0.43 0.0 0 1 488.58 140.30&#10;  L 479.94 140.28&#10;  A 0.43 0.43 0.0 0 0 479.51 140.71&#10;  L 479.54 156.09&#10;  A 0.43 0.43 0.0 0 0 479.97 156.52&#10;  L 492.90 156.45&#10;  A 0.43 0.43 0.0 0 1 493.33 156.96&#10;  L 491.90 164.88&#10;  A 0.43 0.43 0.0 0 1 491.48 165.23&#10;  L 470.40 165.26&#10;  A 0.43 0.43 0.0 0 1 469.97 164.83&#10;  L 469.96 108.61&#10;  A 0.43 0.43 0.0 0 1 470.39 108.18&#10;  L 490.82 108.17&#10;  A 0.43 0.43 0.0 0 1 491.24 108.52&#10;  L 492.71 116.47&#10;  A 0.43 0.43 0.0 0 1 492.28 116.98&#10;  L 479.93 116.92&#10;  A 0.43 0.43 0.0 0 0 479.50 117.35&#10;  L 479.55 131.52&#10;  A 0.43 0.43 0.0 0 0 479.98 131.94&#10;  L 490.06 131.82&#10;  A 0.43 0.43 0.0 0 1 490.49 132.33&#10;  Z"/>
<path fill="#000000" d="&#10;  M 507.67 165.24&#10;  L 499.34 165.24&#10;  A 0.38 0.38 0.0 0 1 498.96 164.86&#10;  L 498.97 108.56&#10;  A 0.38 0.38 0.0 0 1 499.35 108.18&#10;  L 507.71 108.21&#10;  A 0.38 0.38 0.0 0 1 508.06 108.44&#10;  L 516.76 128.85&#10;  A 0.38 0.38 0.0 0 0 517.49 128.70&#10;  L 517.45 108.56&#10;  A 0.38 0.38 0.0 0 1 517.83 108.18&#10;  L 526.15 108.15&#10;  A 0.38 0.38 0.0 0 1 526.53 108.53&#10;  L 526.53 164.87&#10;  A 0.38 0.38 0.0 0 1 526.15 165.25&#10;  L 517.85 165.24&#10;  A 0.38 0.38 0.0 0 1 517.47 164.86&#10;  L 517.43 145.87&#10;  A 0.38 0.38 0.0 0 0 517.40 145.72&#10;  L 508.68 126.65&#10;  A 0.38 0.38 0.0 0 0 507.95 126.81&#10;  L 508.05 164.86&#10;  A 0.38 0.38 0.0 0 1 507.67 165.24&#10;  Z"/>
<path fill="#000000" d="&#10;  M 549.96 117.56&#10;  L 549.98 164.82&#10;  A 0.43 0.43 0.0 0 1 549.55 165.25&#10;  L 540.90 165.24&#10;  A 0.43 0.43 0.0 0 1 540.47 164.81&#10;  L 540.47 117.59&#10;  A 0.43 0.43 0.0 0 0 540.04 117.16&#10;  L 531.72 117.24&#10;  A 0.43 0.43 0.0 0 1 531.29 116.73&#10;  L 532.74 108.56&#10;  A 0.43 0.43 0.0 0 1 533.16 108.21&#10;  L 557.17 108.19&#10;  A 0.43 0.43 0.0 0 1 557.60 108.54&#10;  L 559.11 116.67&#10;  A 0.43 0.43 0.0 0 1 558.68 117.18&#10;  L 550.39 117.13&#10;  A 0.43 0.43 0.0 0 0 549.96 117.56&#10;  Z"/>
<path fill="#000000" d="&#10;  M 582.23 156.77&#10;  L 582.22 108.51&#10;  A 0.36 0.36 0.0 0 1 582.58 108.15&#10;  L 591.30 108.19&#10;  A 0.42 0.42 0.0 0 1 591.72 108.61&#10;  Q 591.77 135.83 591.68 157.66&#10;  C 591.65 163.01 587.48 165.61 582.34 165.57&#10;  Q 576.28 165.53 572.04 165.44&#10;  C 566.10 165.32 563.90 161.28 563.92 155.96&#10;  Q 564.01 130.90 563.93 108.47&#10;  Q 563.93 108.18 564.22 108.18&#10;  L 573.14 108.15&#10;  A 0.33 0.33 0.0 0 1 573.47 108.48&#10;  L 573.47 156.76&#10;  Q 573.47 157.30 574.01 157.30&#10;  L 581.73 157.27&#10;  Q 582.23 157.26 582.23 156.77&#10;  Z"/>
<path fill="#000000" d="&#10;  M 472.89 255.08&#10;  A 0.36 0.36 0.0 0 0 472.53 254.72&#10;  L 371.89 254.72&#10;  A 0.59 0.58 0.0 0 1 371.30 254.14&#10;  L 371.30 209.98&#10;  A 0.22 0.22 0.0 0 1 371.52 209.76&#10;  L 524.29 209.77&#10;  A 0.30 0.29 -0.0 0 1 524.59 210.06&#10;  Q 524.71 320.37 524.53 429.05&#10;  Q 524.52 437.65 522.08 452.14&#10;  C 517.61 478.72 503.60 498.18 481.78 513.79&#10;  Q 465.12 525.70 442.88 536.74&#10;  Q 426.47 544.88 409.85 552.17&#10;  Q 409.50 552.32 409.25 552.03&#10;  Q 392.74 532.23 383.78 509.58&#10;  A 0.67 0.67 0.0 0 1 384.14 508.71&#10;  Q 411.30 496.79 432.10 485.55&#10;  Q 440.49 481.01 448.85 474.80&#10;  C 458.39 467.72 465.62 459.07 468.97 447.43&#10;  C 472.32 435.77 472.87 423.13 472.88 411.23&#10;  Q 472.92 332.89 472.89 255.08&#10;  Z"/>
<path fill="#000000" d="&#10;  M 563.59 490.67&#10;  C 570.99 470.87 573.67 448.61 573.69 427.64&#10;  Q 573.81 321.97 573.72 210.32&#10;  Q 573.72 209.76 574.28 209.76&#10;  L 625.26 209.76&#10;  A 0.51 0.51 0.0 0 1 625.77 210.27&#10;  Q 625.87 324.38 625.71 444.20&#10;  Q 625.67 469.07 617.49 496.91&#10;  Q 606.39 534.67 578.63 562.25&#10;  Q 564.65 576.14 545.17 588.81&#10;  Q 522.95 603.26 499.03 614.08&#10;  Q 498.63 614.26 498.23 614.08&#10;  Q 472.57 602.10 448.84 587.02&#10;  Q 448.59 586.86 448.73 586.43&#10;  A 0.49 0.45 -5.3 0 1 448.98 586.15&#10;  C 474.29 574.04 500.58 560.70 522.25 544.30&#10;  C 541.27 529.90 555.52 512.29 563.59 490.67&#10;  Z"/>
</svg>