<svg xmlns="http://www.w3.org/2000/svg" version="1.1" viewBox="0.00 0.00 500.00 500.00" width="500.00" height="500.00">
<g stroke-width="2.00" fill="none" stroke-linecap="butt">
<path stroke="#808080" d="&#10;  M 334.29 75.04&#10;  L 334.30 82.44&#10;  Q 334.30 82.55 334.42 82.56&#10;  Q 335.30 82.61 340.54 81.07&#10;  A 0.30 0.28 84.8 0 0 340.75 80.80&#10;  Q 340.84 77.72 340.73 74.91&#10;  C 340.50 68.32 334.00 69.34 329.46 69.32&#10;  C 322.87 69.30 321.92 73.19 322.11 78.72&#10;  C 322.23 82.51 321.45 87.08 325.20 89.58&#10;  Q 328.39 91.71 332.26 94.03&#10;  C 335.41 95.93 334.85 100.96 334.65 104.37&#10;  Q 334.64 104.67 334.33 104.67&#10;  L 328.84 104.68&#10;  Q 328.53 104.68 328.53 104.37&#10;  L 328.53 96.96&#10;  A 0.33 0.32 90.0 0 0 328.21 96.63&#10;  L 322.24 96.60&#10;  Q 321.98 96.59 321.96 96.85&#10;  Q 321.47 102.79 322.21 106.27&#10;  Q 322.99 109.93 327.30 110.14&#10;  Q 330.95 110.31 335.04 110.27&#10;  C 338.19 110.23 341.03 108.51 341.16 105.10&#10;  Q 341.30 101.41 341.29 96.68&#10;  C 341.28 93.93 340.26 91.29 337.93 89.72&#10;  Q 334.34 87.30 330.51 84.98&#10;  A 4.18 4.16 15.7 0 1 328.50 81.42&#10;  L 328.50 75.02&#10;  A 0.35 0.35 0.0 0 1 328.85 74.67&#10;  L 334.04 74.78&#10;  A 0.26 0.25 90.0 0 1 334.29 75.04"/>
<path stroke="#808080" d="&#10;  M 166.83 76.26&#10;  Q 166.71 86.94 166.81 98.00&#10;  C 166.86 102.37 163.89 104.61 159.53 104.05&#10;  Q 159.26 104.02 159.26 104.29&#10;  L 159.24 109.97&#10;  Q 159.24 110.23 159.50 110.24&#10;  C 167.27 110.66 173.59 106.80 173.65 98.34&#10;  Q 173.75 82.94 173.64 70.08&#10;  Q 173.64 69.49 173.04 69.49&#10;  L 160.77 69.50&#10;  Q 160.53 69.50 160.53 69.73&#10;  L 160.59 75.28&#10;  Q 160.60 75.50 160.81 75.50&#10;  L 166.07 75.49&#10;  Q 166.84 75.49 166.83 76.26"/>
<path stroke="#808080" d="&#10;  M 186.41 104.27&#10;  Q 186.05 104.27 186.05 103.91&#10;  L 186.04 69.75&#10;  Q 186.04 69.47 185.75 69.47&#10;  L 179.55 69.50&#10;  Q 179.24 69.51 179.24 69.82&#10;  Q 179.27 85.70 179.25 103.74&#10;  C 179.25 108.09 181.92 110.47 186.19 110.28&#10;  C 190.42 110.10 198.45 111.74 198.93 105.13&#10;  Q 199.12 102.48 199.12 99.89&#10;  Q 199.10 85.08 199.10 69.87&#10;  A 0.38 0.38 0.0 0 0 198.72 69.49&#10;  L 192.76 69.48&#10;  Q 192.25 69.48 192.25 69.99&#10;  L 192.25 104.01&#10;  Q 192.25 104.28 191.99 104.28&#10;  L 186.41 104.27"/>
<path stroke="#808080" d="&#10;  M 213.36 103.26&#10;  Q 211.35 104.16 211.35 101.96&#10;  L 211.36 69.83&#10;  Q 211.36 69.49 211.02 69.49&#10;  L 204.77 69.48&#10;  Q 204.53 69.48 204.53 69.73&#10;  L 204.54 109.75&#10;  A 0.42 0.42 0.0 0 0 204.95 110.17&#10;  C 216.16 110.32 224.41 107.77 224.45 94.75&#10;  Q 224.50 82.25 224.49 69.73&#10;  Q 224.49 69.48 224.23 69.48&#10;  L 217.94 69.47&#10;  Q 217.58 69.47 217.58 69.83&#10;  Q 217.67 82.95 217.54 96.43&#10;  A 8.10 8.09 -23.0 0 1 215.32 101.92&#10;  Q 214.57 102.72 213.36 103.26"/>
<path stroke="#808080" d="&#10;  M 236.53 76.09&#10;  A 0.38 0.38 0.0 0 1 236.91 75.71&#10;  L 245.58 75.74&#10;  A 0.38 0.38 0.0 0 0 245.95 75.29&#10;  L 245.00 69.82&#10;  A 0.38 0.38 0.0 0 0 244.63 69.51&#10;  L 230.13 69.48&#10;  A 0.38 0.38 0.0 0 0 229.75 69.86&#10;  L 229.75 109.70&#10;  A 0.38 0.38 0.0 0 0 230.13 110.08&#10;  L 245.00 110.12&#10;  A 0.38 0.38 0.0 0 0 245.37 109.81&#10;  L 246.49 104.21&#10;  A 0.38 0.38 0.0 0 0 246.12 103.75&#10;  L 236.95 103.78&#10;  A 0.38 0.38 0.0 0 1 236.57 103.40&#10;  L 236.54 92.66&#10;  A 0.38 0.38 0.0 0 1 236.92 92.28&#10;  L 242.94 92.31&#10;  A 0.38 0.38 0.0 0 0 243.31 92.01&#10;  L 244.41 86.93&#10;  A 0.38 0.38 0.0 0 0 244.04 86.47&#10;  L 236.95 86.52&#10;  A 0.38 0.38 0.0 0 1 236.57 86.14&#10;  L 236.53 76.09"/>
<path stroke="#808080" d="&#10;  M 263.77 83.27&#10;  Q 263.78 85.73 262.84 83.46&#10;  L 257.21 69.98&#10;  Q 257.01 69.49 256.47 69.49&#10;  L 251.16 69.50&#10;  Q 250.57 69.50 250.57 70.09&#10;  L 250.57 109.74&#10;  Q 250.57 110.15 250.99 110.15&#10;  L 256.72 110.13&#10;  A 0.47 0.47 0.0 0 0 257.19 109.66&#10;  L 257.09 84.02&#10;  Q 257.08 81.24 258.21 83.78&#10;  Q 260.68 89.32 263.06 94.55&#10;  Q 263.78 96.12 263.76 97.82&#10;  Q 263.71 103.19 263.76 109.90&#10;  Q 263.76 110.17 264.03 110.17&#10;  L 270.05 110.00&#10;  A 0.31 0.30 -1.0 0 0 270.35 109.70&#10;  L 270.35 69.79&#10;  Q 270.35 69.49 270.04 69.49&#10;  L 264.00 69.48&#10;  Q 263.73 69.48 263.73 69.75&#10;  L 263.77 83.27"/>
<path stroke="#808080" d="&#10;  M 279.91 75.59&#10;  A 0.38 0.38 0.0 0 1 280.29 75.97&#10;  L 280.31 109.76&#10;  A 0.38 0.38 0.0 0 0 280.70 110.14&#10;  L 286.78 110.01&#10;  A 0.38 0.38 0.0 0 0 287.15 109.63&#10;  L 287.11 75.97&#10;  A 0.38 0.38 0.0 0 1 287.50 75.59&#10;  L 293.14 75.72&#10;  A 0.38 0.38 0.0 0 0 293.52 75.27&#10;  L 292.50 69.80&#10;  A 0.38 0.38 0.0 0 0 292.12 69.49&#10;  L 275.16 69.50&#10;  A 0.38 0.38 0.0 0 0 274.79 69.82&#10;  L 273.88 75.20&#10;  A 0.38 0.38 0.0 0 0 274.26 75.65&#10;  L 279.91 75.59"/>
<path stroke="#808080" d="&#10;  M 304.20 104.28&#10;  Q 303.87 104.28 303.87 103.95&#10;  L 303.90 69.71&#10;  Q 303.90 69.52 303.71 69.52&#10;  L 297.50 69.50&#10;  A 0.30 0.30 0.0 0 0 297.20 69.80&#10;  Q 297.24 87.14 297.17 103.99&#10;  C 297.14 111.51 304.33 110.26 309.35 110.32&#10;  C 313.33 110.37 316.79 109.05 316.82 104.51&#10;  Q 316.92 87.68 316.89 69.71&#10;  Q 316.89 69.51 316.69 69.51&#10;  L 310.32 69.50&#10;  Q 310.10 69.50 310.10 69.73&#10;  L 310.14 104.07&#10;  Q 310.14 104.28 309.93 104.28&#10;  L 304.20 104.28"/>
<path stroke="#808080" d="&#10;  M 231.52 174.12&#10;  A 0.43 0.43 0.0 0 1 231.95 174.55&#10;  Q 231.95 229.44 231.96 279.43&#10;  C 231.96 290.66 231.99 303.37 228.23 313.74&#10;  C 223.45 326.91 210.08 334.99 197.64 341.29&#10;  Q 183.18 348.62 168.49 355.00&#10;  A 0.51 0.51 0.0 0 0 168.22 355.66&#10;  Q 174.91 371.96 186.03 385.50&#10;  A 0.83 0.82 58.4 0 0 187.00 385.74&#10;  Q 203.92 378.40 220.39 369.58&#10;  C 237.97 360.17 256.32 347.42 263.23 328.13&#10;  C 268.02 314.73 268.87 300.78 268.89 286.28&#10;  Q 268.99 215.19 268.92 142.41&#10;  A 0.42 0.41 90.0 0 0 268.51 141.99&#10;  L 159.50 141.99&#10;  Q 159.25 141.99 159.25 142.25&#10;  L 159.25 173.80&#10;  A 0.33 0.33 0.0 0 0 159.58 174.13&#10;  L 231.52 174.12"/>
<path stroke="#808080" d="&#10;  M 294.39 347.74&#10;  C 287.84 361.92 277.06 373.49 264.23 382.53&#10;  C 249.14 393.17 231.97 401.84 214.94 410.14&#10;  Q 214.27 410.47 214.90 410.87&#10;  Q 232.01 421.69 249.74 429.83&#10;  Q 250.21 430.04 250.68 429.83&#10;  Q 273.94 419.44 293.16 405.41&#10;  Q 332.07 377.01 339.32 328.63&#10;  Q 341.18 316.27 341.19 307.72&#10;  Q 341.32 222.00 341.24 142.28&#10;  Q 341.24 141.99 340.95 141.99&#10;  L 304.76 142.00&#10;  Q 304.17 142.00 304.17 142.59&#10;  Q 304.21 217.31 304.16 294.73&#10;  C 304.15 312.48 301.82 331.64 294.39 347.74"/>
</g>
<path fill="#000000" d="&#10;  M 0.00 0.00&#10;  L 500.00 0.00&#10;  L 500.00 500.00&#10;  L 0.00 500.00&#10;  L 0.00 0.00&#10;  Z&#10;  M 334.29 75.04&#10;  L 334.30 82.44&#10;  Q 334.30 82.55 334.42 82.56&#10;  Q 335.30 82.61 340.54 81.07&#10;  A 0.30 0.28 84.8 0 0 340.75 80.80&#10;  Q 340.84 77.72 340.73 74.91&#10;  C 340.50 68.32 334.00 69.34 329.46 69.32&#10;  C 322.87 69.30 321.92 73.19 322.11 78.72&#10;  C 322.23 82.51 321.45 87.08 325.20 89.58&#10;  Q 328.39 91.71 332.26 94.03&#10;  C 335.41 95.93 334.85 100.96 334.65 104.37&#10;  Q 334.64 104.67 334.33 104.67&#10;  L 328.84 104.68&#10;  Q 328.53 104.68 328.53 104.37&#10;  L 328.53 96.96&#10;  A 0.33 0.32 90.0 0 0 328.21 96.63&#10;  L 322.24 96.60&#10;  Q 321.98 96.59 321.96 96.85&#10;  Q 321.47 102.79 322.21 106.27&#10;  Q 322.99 109.93 327.30 110.14&#10;  Q 330.95 110.31 335.04 110.27&#10;  C 338.19 110.23 341.03 108.51 341.16 105.10&#10;  Q 341.30 101.41 341.29 96.68&#10;  C 341.28 93.93 340.26 91.29 337.93 89.72&#10;  Q 334.34 87.30 330.51 84.98&#10;  A 4.18 4.16 15.7 0 1 328.50 81.42&#10;  L 328.50 75.02&#10;  A 0.35 0.35 0.0 0 1 328.85 74.67&#10;  L 334.04 74.78&#10;  A 0.26 0.25 90.0 0 1 334.29 75.04&#10;  Z&#10;  M 166.83 76.26&#10;  Q 166.71 86.94 166.81 98.00&#10;  C 166.86 102.37 163.89 104.61 159.53 104.05&#10;  Q 159.26 104.02 159.26 104.29&#10;  L 159.24 109.97&#10;  Q 159.24 110.23 159.50 110.24&#10;  C 167.27 110.66 173.59 106.80 173.65 98.34&#10;  Q 173.75 82.94 173.64 70.08&#10;  Q 173.64 69.49 173.04 69.49&#10;  L 160.77 69.50&#10;  Q 160.53 69.50 160.53 69.73&#10;  L 160.59 75.28&#10;  Q 160.60 75.50 160.81 75.50&#10;  L 166.07 75.49&#10;  Q 166.84 75.49 166.83 76.26&#10;  Z&#10;  M 186.41 104.27&#10;  Q 186.05 104.27 186.05 103.91&#10;  L 186.04 69.75&#10;  Q 186.04 69.47 185.75 69.47&#10;  L 179.55 69.50&#10;  Q 179.24 69.51 179.24 69.82&#10;  Q 179.27 85.70 179.25 103.74&#10;  C 179.25 108.09 181.92 110.47 186.19 110.28&#10;  C 190.42 110.10 198.45 111.74 198.93 105.13&#10;  Q 199.12 102.48 199.12 99.89&#10;  Q 199.10 85.08 199.10 69.87&#10;  A 0.38 0.38 0.0 0 0 198.72 69.49&#10;  L 192.76 69.48&#10;  Q 192.25 69.48 192.25 69.99&#10;  L 192.25 104.01&#10;  Q 192.25 104.28 191.99 104.28&#10;  L 186.41 104.27&#10;  Z&#10;  M 213.36 103.26&#10;  Q 211.35 104.16 211.35 101.96&#10;  L 211.36 69.83&#10;  Q 211.36 69.49 211.02 69.49&#10;  L 204.77 69.48&#10;  Q 204.53 69.48 204.53 69.73&#10;  L 204.54 109.75&#10;  A 0.42 0.42 0.0 0 0 204.95 110.17&#10;  C 216.16 110.32 224.41 107.77 224.45 94.75&#10;  Q 224.50 82.25 224.49 69.73&#10;  Q 224.49 69.48 224.23 69.48&#10;  L 217.94 69.47&#10;  Q 217.58 69.47 217.58 69.83&#10;  Q 217.67 82.95 217.54 96.43&#10;  A 8.10 8.09 -23.0 0 1 215.32 101.92&#10;  Q 214.57 102.72 213.36 103.26&#10;  Z&#10;  M 236.53 76.09&#10;  A 0.38 0.38 0.0 0 1 236.91 75.71&#10;  L 245.58 75.74&#10;  A 0.38 0.38 0.0 0 0 245.95 75.29&#10;  L 245.00 69.82&#10;  A 0.38 0.38 0.0 0 0 244.63 69.51&#10;  L 230.13 69.48&#10;  A 0.38 0.38 0.0 0 0 229.75 69.86&#10;  L 229.75 109.70&#10;  A 0.38 0.38 0.0 0 0 230.13 110.08&#10;  L 245.00 110.12&#10;  A 0.38 0.38 0.0 0 0 245.37 109.81&#10;  L 246.49 104.21&#10;  A 0.38 0.38 0.0 0 0 246.12 103.75&#10;  L 236.95 103.78&#10;  A 0.38 0.38 0.0 0 1 236.57 103.40&#10;  L 236.54 92.66&#10;  A 0.38 0.38 0.0 0 1 236.92 92.28&#10;  L 242.94 92.31&#10;  A 0.38 0.38 0.0 0 0 243.31 92.01&#10;  L 244.41 86.93&#10;  A 0.38 0.38 0.0 0 0 244.04 86.47&#10;  L 236.95 86.52&#10;  A 0.38 0.38 0.0 0 1 236.57 86.14&#10;  L 236.53 76.09&#10;  Z&#10;  M 263.77 83.27&#10;  Q 263.78 85.73 262.84 83.46&#10;  L 257.21 69.98&#10;  Q 257.01 69.49 256.47 69.49&#10;  L 251.16 69.50&#10;  Q 250.57 69.50 250.57 70.09&#10;  L 250.57 109.74&#10;  Q 250.57 110.15 250.99 110.15&#10;  L 256.72 110.13&#10;  A 0.47 0.47 0.0 0 0 257.19 109.66&#10;  L 257.09 84.02&#10;  Q 257.08 81.24 258.21 83.78&#10;  Q 260.68 89.32 263.06 94.55&#10;  Q 263.78 96.12 263.76 97.82&#10;  Q 263.71 103.19 263.76 109.90&#10;  Q 263.76 110.17 264.03 110.17&#10;  L 270.05 110.00&#10;  A 0.31 0.30 -1.0 0 0 270.35 109.70&#10;  L 270.35 69.79&#10;  Q 270.35 69.49 270.04 69.49&#10;  L 264.00 69.48&#10;  Q 263.73 69.48 263.73 69.75&#10;  L 263.77 83.27&#10;  Z&#10;  M 279.91 75.59&#10;  A 0.38 0.38 0.0 0 1 280.29 75.97&#10;  L 280.31 109.76&#10;  A 0.38 0.38 0.0 0 0 280.70 110.14&#10;  L 286.78 110.01&#10;  A 0.38 0.38 0.0 0 0 287.15 109.63&#10;  L 287.11 75.97&#10;  A 0.38 0.38 0.0 0 1 287.50 75.59&#10;  L 293.14 75.72&#10;  A 0.38 0.38 0.0 0 0 293.52 75.27&#10;  L 292.50 69.80&#10;  A 0.38 0.38 0.0 0 0 292.12 69.49&#10;  L 275.16 69.50&#10;  A 0.38 0.38 0.0 0 0 274.79 69.82&#10;  L 273.88 75.20&#10;  A 0.38 0.38 0.0 0 0 274.26 75.65&#10;  L 279.91 75.59&#10;  Z&#10;  M 304.20 104.28&#10;  Q 303.87 104.28 303.87 103.95&#10;  L 303.90 69.71&#10;  Q 303.90 69.52 303.71 69.52&#10;  L 297.50 69.50&#10;  A 0.30 0.30 0.0 0 0 297.20 69.80&#10;  Q 297.24 87.14 297.17 103.99&#10;  C 297.14 111.51 304.33 110.26 309.35 110.32&#10;  C 313.33 110.37 316.79 109.05 316.82 104.51&#10;  Q 316.92 87.68 316.89 69.71&#10;  Q 316.89 69.51 316.69 69.51&#10;  L 310.32 69.50&#10;  Q 310.10 69.50 310.10 69.73&#10;  L 310.14 104.07&#10;  Q 310.14 104.28 309.93 104.28&#10;  L 304.20 104.28&#10;  Z&#10;  M 231.52 174.12&#10;  A 0.43 0.43 0.0 0 1 231.95 174.55&#10;  Q 231.95 229.44 231.96 279.43&#10;  C 231.96 290.66 231.99 303.37 228.23 313.74&#10;  C 223.45 326.91 210.08 334.99 197.64 341.29&#10;  Q 183.18 348.62 168.49 355.00&#10;  A 0.51 0.51 0.0 0 0 168.22 355.66&#10;  Q 174.91 371.96 186.03 385.50&#10;  A 0.83 0.82 58.4 0 0 187.00 385.74&#10;  Q 203.92 378.40 220.39 369.58&#10;  C 237.97 360.17 256.32 347.42 263.23 328.13&#10;  C 268.02 314.73 268.87 300.78 268.89 286.28&#10;  Q 268.99 215.19 268.92 142.41&#10;  A 0.42 0.41 90.0 0 0 268.51 141.99&#10;  L 159.50 141.99&#10;  Q 159.25 141.99 159.25 142.25&#10;  L 159.25 173.80&#10;  A 0.33 0.33 0.0 0 0 159.58 174.13&#10;  L 231.52 174.12&#10;  Z&#10;  M 294.39 347.74&#10;  C 287.84 361.92 277.06 373.49 264.23 382.53&#10;  C 249.14 393.17 231.97 401.84 214.94 410.14&#10;  Q 214.27 410.47 214.90 410.87&#10;  Q 232.01 421.69 249.74 429.83&#10;  Q 250.21 430.04 250.68 429.83&#10;  Q 273.94 419.44 293.16 405.41&#10;  Q 332.07 377.01 339.32 328.63&#10;  Q 341.18 316.27 341.19 307.72&#10;  Q 341.32 222.00 341.24 142.28&#10;  Q 341.24 141.99 340.95 141.99&#10;  L 304.76 142.00&#10;  Q 304.17 142.00 304.17 142.59&#10;  Q 304.21 217.31 304.16 294.73&#10;  C 304.15 312.48 301.82 331.64 294.39 347.74&#10;  Z"/>
<path fill="#ffffff" d="&#10;  M 334.29 75.04&#10;  A 0.26 0.25 90.0 0 0 334.04 74.78&#10;  L 328.85 74.67&#10;  A 0.35 0.35 0.0 0 0 328.50 75.02&#10;  L 328.50 81.42&#10;  A 4.18 4.16 15.7 0 0 330.51 84.98&#10;  Q 334.34 87.30 337.93 89.72&#10;  C 340.26 91.29 341.28 93.93 341.29 96.68&#10;  Q 341.30 101.41 341.16 105.10&#10;  C 341.03 108.51 338.19 110.23 335.04 110.27&#10;  Q 330.95 110.31 327.30 110.14&#10;  Q 322.99 109.93 322.21 106.27&#10;  Q 321.47 102.79 321.96 96.85&#10;  Q 321.98 96.59 322.24 96.60&#10;  L 328.21 96.63&#10;  A 0.33 0.32 -90.0 0 1 328.53 96.96&#10;  L 328.53 104.37&#10;  Q 328.53 104.68 328.84 104.68&#10;  L 334.33 104.67&#10;  Q 334.64 104.67 334.65 104.37&#10;  C 334.85 100.96 335.41 95.93 332.26 94.03&#10;  Q 328.39 91.71 325.20 89.58&#10;  C 321.45 87.08 322.23 82.51 322.11 78.72&#10;  C 321.92 73.19 322.87 69.30 329.46 69.32&#10;  C 334.00 69.34 340.50 68.32 340.73 74.91&#10;  Q 340.84 77.72 340.75 80.80&#10;  A 0.30 0.28 84.8 0 1 340.54 81.07&#10;  Q 335.30 82.61 334.42 82.56&#10;  Q 334.30 82.55 334.30 82.44&#10;  L 334.29 75.04&#10;  Z"/>
<path fill="#ffffff" d="&#10;  M 166.07 75.49&#10;  L 160.81 75.50&#10;  Q 160.60 75.50 160.59 75.28&#10;  L 160.53 69.73&#10;  Q 160.53 69.50 160.77 69.50&#10;  L 173.04 69.49&#10;  Q 173.64 69.49 173.64 70.08&#10;  Q 173.75 82.94 173.65 98.34&#10;  C 173.59 106.80 167.27 110.66 159.50 110.24&#10;  Q 159.24 110.23 159.24 109.97&#10;  L 159.26 104.29&#10;  Q 159.26 104.02 159.53 104.05&#10;  C 163.89 104.61 166.86 102.37 166.81 98.00&#10;  Q 166.71 86.94 166.83 76.26&#10;  Q 166.84 75.49 166.07 75.49&#10;  Z"/>
<path fill="#ffffff" d="&#10;  M 192.25 104.01&#10;  L 192.25 69.99&#10;  Q 192.25 69.48 192.76 69.48&#10;  L 198.72 69.49&#10;  A 0.38 0.38 0.0 0 1 199.10 69.87&#10;  Q 199.10 85.08 199.12 99.89&#10;  Q 199.12 102.48 198.93 105.13&#10;  C 198.45 111.74 190.42 110.10 186.19 110.28&#10;  C 181.92 110.47 179.25 108.09 179.25 103.74&#10;  Q 179.27 85.70 179.24 69.82&#10;  Q 179.24 69.51 179.55 69.50&#10;  L 185.75 69.47&#10;  Q 186.04 69.47 186.04 69.75&#10;  L 186.05 103.91&#10;  Q 186.05 104.27 186.41 104.27&#10;  L 191.99 104.28&#10;  Q 192.25 104.28 192.25 104.01&#10;  Z"/>
<path fill="#ffffff" d="&#10;  M 213.36 103.26&#10;  Q 214.57 102.72 215.32 101.92&#10;  A 8.10 8.09 -23.0 0 0 217.54 96.43&#10;  Q 217.67 82.95 217.58 69.83&#10;  Q 217.58 69.47 217.94 69.47&#10;  L 224.23 69.48&#10;  Q 224.49 69.48 224.49 69.73&#10;  Q 224.50 82.25 224.45 94.75&#10;  C 224.41 107.77 216.16 110.32 204.95 110.17&#10;  A 0.42 0.42 0.0 0 1 204.54 109.75&#10;  L 204.53 69.73&#10;  Q 204.53 69.48 204.77 69.48&#10;  L 211.02 69.49&#10;  Q 211.36 69.49 211.36 69.83&#10;  L 211.35 101.96&#10;  Q 211.35 104.16 213.36 103.26&#10;  Z"/>
<path fill="#ffffff" d="&#10;  M 236.53 76.09&#10;  L 236.57 86.14&#10;  A 0.38 0.38 0.0 0 0 236.95 86.52&#10;  L 244.04 86.47&#10;  A 0.38 0.38 0.0 0 1 244.41 86.93&#10;  L 243.31 92.01&#10;  A 0.38 0.38 0.0 0 1 242.94 92.31&#10;  L 236.92 92.28&#10;  A 0.38 0.38 0.0 0 0 236.54 92.66&#10;  L 236.57 103.40&#10;  A 0.38 0.38 0.0 0 0 236.95 103.78&#10;  L 246.12 103.75&#10;  A 0.38 0.38 0.0 0 1 246.49 104.21&#10;  L 245.37 109.81&#10;  A 0.38 0.38 0.0 0 1 245.00 110.12&#10;  L 230.13 110.08&#10;  A 0.38 0.38 0.0 0 1 229.75 109.70&#10;  L 229.75 69.86&#10;  A 0.38 0.38 0.0 0 1 230.13 69.48&#10;  L 244.63 69.51&#10;  A 0.38 0.38 0.0 0 1 245.00 69.82&#10;  L 245.95 75.29&#10;  A 0.38 0.38 0.0 0 1 245.58 75.74&#10;  L 236.91 75.71&#10;  A 0.38 0.38 0.0 0 0 236.53 76.09&#10;  Z"/>
<path fill="#ffffff" d="&#10;  M 263.77 83.27&#10;  L 263.73 69.75&#10;  Q 263.73 69.48 264.00 69.48&#10;  L 270.04 69.49&#10;  Q 270.35 69.49 270.35 69.79&#10;  L 270.35 109.70&#10;  A 0.31 0.30 -1.0 0 1 270.05 110.00&#10;  L 264.03 110.17&#10;  Q 263.76 110.17 263.76 109.90&#10;  Q 263.71 103.19 263.76 97.82&#10;  Q 263.78 96.12 263.06 94.55&#10;  Q 260.68 89.32 258.21 83.78&#10;  Q 257.08 81.24 257.09 84.02&#10;  L 257.19 109.66&#10;  A 0.47 0.47 0.0 0 1 256.72 110.13&#10;  L 250.99 110.15&#10;  Q 250.57 110.15 250.57 109.74&#10;  L 250.57 70.09&#10;  Q 250.57 69.50 251.16 69.50&#10;  L 256.47 69.49&#10;  Q 257.01 69.49 257.21 69.98&#10;  L 262.84 83.46&#10;  Q 263.78 85.73 263.77 83.27&#10;  Z"/>
<path fill="#ffffff" d="&#10;  M 279.91 75.59&#10;  L 274.26 75.65&#10;  A 0.38 0.38 0.0 0 1 273.88 75.20&#10;  L 274.79 69.82&#10;  A 0.38 0.38 0.0 0 1 275.16 69.50&#10;  L 292.12 69.49&#10;  A 0.38 0.38 0.0 0 1 292.50 69.80&#10;  L 293.52 75.27&#10;  A 0.38 0.38 0.0 0 1 293.14 75.72&#10;  L 287.50 75.59&#10;  A 0.38 0.38 0.0 0 0 287.11 75.97&#10;  L 287.15 109.63&#10;  A 0.38 0.38 0.0 0 1 286.78 110.01&#10;  L 280.70 110.14&#10;  A 0.38 0.38 0.0 0 1 280.31 109.76&#10;  L 280.29 75.97&#10;  A 0.38 0.38 0.0 0 0 279.91 75.59&#10;  Z"/>
<path fill="#ffffff" d="&#10;  M 310.14 104.07&#10;  L 310.10 69.73&#10;  Q 310.10 69.50 310.32 69.50&#10;  L 316.69 69.51&#10;  Q 316.89 69.51 316.89 69.71&#10;  Q 316.92 87.68 316.82 104.51&#10;  C 316.79 109.05 313.33 110.37 309.35 110.32&#10;  C 304.33 110.26 297.14 111.51 297.17 103.99&#10;  Q 297.24 87.14 297.20 69.80&#10;  A 0.30 0.30 0.0 0 1 297.50 69.50&#10;  L 303.71 69.52&#10;  Q 303.90 69.52 303.90 69.71&#10;  L 303.87 103.95&#10;  Q 303.87 104.28 304.20 104.28&#10;  L 309.93 104.28&#10;  Q 310.14 104.28 310.14 104.07&#10;  Z"/>
<path fill="#ffffff" d="&#10;  M 231.52 174.12&#10;  L 159.58 174.13&#10;  A 0.33 0.33 0.0 0 1 159.25 173.80&#10;  L 159.25 142.25&#10;  Q 159.25 141.99 159.50 141.99&#10;  L 268.51 141.99&#10;  A 0.42 0.41 -90.0 0 1 268.92 142.41&#10;  Q 268.99 215.19 268.89 286.28&#10;  C 268.87 300.78 268.02 314.73 263.23 328.13&#10;  C 256.32 347.42 237.97 360.17 220.39 369.58&#10;  Q 203.92 378.40 187.00 385.74&#10;  A 0.83 0.82 58.4 0 1 186.03 385.50&#10;  Q 174.91 371.96 168.22 355.66&#10;  A 0.51 0.51 0.0 0 1 168.49 355.00&#10;  Q 183.18 348.62 197.64 341.29&#10;  C 210.08 334.99 223.45 326.91 228.23 313.74&#10;  C 231.99 303.37 231.96 290.66 231.96 279.43&#10;  Q 231.95 229.44 231.95 174.55&#10;  A 0.43 0.43 0.0 0 0 231.52 174.12&#10;  Z"/>
<path fill="#ffffff" d="&#10;  M 294.39 347.74&#10;  C 301.82 331.64 304.15 312.48 304.16 294.73&#10;  Q 304.21 217.31 304.17 142.59&#10;  Q 304.17 142.00 304.76 142.00&#10;  L 340.95 141.99&#10;  Q 341.24 141.99 341.24 142.28&#10;  Q 341.32 222.00 341.19 307.72&#10;  Q 341.18 316.27 339.32 328.63&#10;  Q 332.07 377.01 293.16 405.41&#10;  Q 273.94 419.44 250.68 429.83&#10;  Q 250.21 430.04 249.74 429.83&#10;  Q 232.01 421.69 214.90 410.87&#10;  Q 214.27 410.47 214.94 410.14&#10;  C 231.97 401.84 249.14 393.17 264.23 382.53&#10;  C 277.06 373.49 287.84 361.92 294.39 347.74&#10;  Z"/>
</svg>